<?xml version="1.0" encoding="UTF-8" standalone="no"?>
<!-- Created with Inkscape (http://www.inkscape.org/) -->

<svg
   width="512"
   height="512"
   viewBox="0 0 512 512"
   version="1.1"
   id="svg1"
   sodipodi:docname="ryddlesoftlogo_02.svg"
   inkscape:export-filename="ryddlesoftlogo_02.png"
   inkscape:export-xdpi="96"
   inkscape:export-ydpi="96"
   inkscape:version="1.4-beta (62f545ba5e, 2024-04-22)"
   xmlns:inkscape="http://www.inkscape.org/namespaces/inkscape"
   xmlns:sodipodi="http://sodipodi.sourceforge.net/DTD/sodipodi-0.dtd"
   xmlns="http://www.w3.org/2000/svg"
   xmlns:svg="http://www.w3.org/2000/svg">
  <sodipodi:namedview
     id="namedview1"
     pagecolor="#000000"
     bordercolor="#000000"
     borderopacity="0.25"
     inkscape:showpageshadow="2"
     inkscape:pageopacity="0.0"
     inkscape:pagecheckerboard="0"
     inkscape:deskcolor="#d1d1d1"
     showguides="true"
     inkscape:zoom="1.647614"
     inkscape:cx="318.64259"
     inkscape:cy="239.43715"
     inkscape:window-width="2560"
     inkscape:window-height="1387"
     inkscape:window-x="-8"
     inkscape:window-y="-8"
     inkscape:window-maximized="1"
     inkscape:current-layer="svg1"
     inkscape:export-bgcolor="#000000ff" />
  <defs
     id="defs1">
    <rect
       x="137.33446"
       y="115.0176"
       width="250.63538"
       height="284.96899"
       id="rect1" />
    <rect
       x="137.33446"
       y="115.0176"
       width="250.63538"
       height="284.96899"
       id="rect1-7" />
    <rect
       x="137.33446"
       y="115.0176"
       width="250.63538"
       height="284.96899"
       id="rect1-7-2" />
  </defs>
  <g
     id="layer1"
     style="display:none">
    <path
       style="opacity:1;fill:#bd0a61;fill-opacity:1;stroke:#ffffff;stroke-width:0;stroke-linecap:round;stroke-dasharray:none;paint-order:stroke fill markers"
       d="m 257.77627,254.92774 c 0,0 79.76476,0.0444 113.78917,-0.0519 34.03038,-0.0963 64.51798,22.61316 64.197,71.36636 -0.306,46.47685 -27.46422,66.44249 -64.197,66.38734 -18.8669,-0.0284 -113.62867,0.41493 -113.62867,0.41493 l 0.16048,-28.837 c 0,0 81.37824,0.33488 113.46819,-0.62239 41.72805,-1.24477 41.88854,-25.51763 41.88854,-37.96527 0,-11.61777 -0.27222,-37.18917 -42.53051,-40.03985 -42.25829,-2.85066 -112.9867,-1.0373 -112.9867,-1.0373 z"
       id="path1" />
    <path
       style="opacity:1;fill:#bd0a61;fill-opacity:1;stroke:#ffffff;stroke-width:0;stroke-linecap:round;stroke-dasharray:none;paint-order:stroke fill markers"
       d="m 62.888059,103.32633 c 0,0 79.764751,0.0444 113.789161,-0.0519 34.03038,-0.0963 64.51799,22.61316 64.19701,71.36635 -0.306,46.47686 -27.46422,66.44249 -64.19701,66.38735 -18.8669,-0.0284 -113.628677,0.41493 -113.628677,0.41493 l 0.160496,-28.837 c 0,0 81.378241,0.33488 113.468181,-0.62239 41.72805,-1.24478 41.88854,-25.51764 41.88854,-37.96527 0,-11.61778 -0.27221,-37.18918 -42.53051,-40.03986 -42.2583,-2.85066 -112.986707,-1.03729 -112.986707,-1.03729 z"
       id="path1-5" />
    <path
       style="opacity:1;fill:#bd0a61;fill-opacity:1;stroke:#ffffff;stroke-width:0;stroke-linecap:round;stroke-dasharray:none;paint-order:stroke fill markers"
       d="m 431.86916,104.46087 c 0,0 -79.76475,0.0444 -113.78916,-0.0519 -34.03038,-0.0963 -64.51799,22.61315 -64.19701,71.36634 0.30601,46.47685 27.46422,66.44249 64.19701,66.38733 18.8669,-0.0284 113.62868,0.41494 113.62868,0.41494 l -0.1605,-28.83701 c 0,0 -81.37823,0.33488 -113.46818,-0.62239 -41.72805,-1.24476 -41.88854,-25.51762 -41.88854,-37.96526 0,-11.61778 0.27221,-37.18916 42.53051,-40.03984 42.25829,-2.85066 112.98671,-1.0373 112.98671,-1.0373 z"
       id="path1-8" />
  </g>
  <g
     id="layer2"
     style="display:none">
    <text
       xml:space="preserve"
       id="text1"
       style="font-size:180px;text-align:start;writing-mode:lr-tb;direction:ltr;white-space:pre;shape-inside:url(#rect1);display:inline;fill:#bd0a61;fill-opacity:1;stroke:#ffffff;stroke-width:0;stroke-linecap:round;stroke-dasharray:none;paint-order:stroke fill markers"
       transform="matrix(0,1.4026709,-1.7590157,0,757.99365,-131.40356)"><tspan
         x="137.33398"
         y="278.79511"
         id="tspan1">U</tspan></text>
    <text
       xml:space="preserve"
       id="text1-1"
       style="font-size:180px;text-align:start;writing-mode:lr-tb;direction:ltr;white-space:pre;shape-inside:url(#rect1-7);display:inline;fill:#bd0a61;fill-opacity:1;stroke:#ffffff;stroke-width:0;stroke-linecap:round;stroke-dasharray:none;paint-order:stroke fill markers"
       transform="matrix(0,1.4026709,1.7590157,0,0.1457887,33.202308)"><tspan
         x="137.33398"
         y="278.79511"
         id="tspan2">U</tspan></text>
    <text
       xml:space="preserve"
       id="text1-1-6"
       style="font-size:180px;text-align:start;writing-mode:lr-tb;direction:ltr;white-space:pre;shape-inside:url(#rect1-7-2);display:inline;fill:#bd0a61;fill-opacity:1;stroke:#ffffff;stroke-width:0;stroke-linecap:round;stroke-dasharray:none;paint-order:stroke fill markers"
       transform="matrix(0,1.4026709,1.7590157,0,-248.39494,-131.62783)"><tspan
         x="137.33398"
         y="278.79511"
         id="tspan3">U</tspan></text>
  </g>
  <g
     id="layer3"
     style="display:none">
    <rect
       style="fill:#1e90ff;fill-opacity:1;fill-rule:evenodd;stroke-width:1.25445"
       id="rect5"
       width="28.001553"
       height="203.40788"
       x="-198.16341"
       y="364.53183"
       transform="matrix(1,0,0.73152992,0.68180934,0,0)" />
  </g>
  <g
     id="g6"
     style="display:none">
    <g
       id="g11"
       style="display:inline">
      <path
         d="M 493.65737,232.81851 H 347.37763 c -15.62006,0 -29.76255,-2.52481 -42.42746,-7.57443 -12.45383,-5.04961 -22.37468,-12.79236 -29.76255,-23.22823 -7.17678,-10.43587 -10.76517,-23.56487 -10.76517,-39.387 0,-22.55494 7.59894,-39.63948 22.79684,-51.25359 15.40898,-11.614117 35.67284,-17.421174 60.79158,-17.421174 h 145.6465 z"
         id="text2"
         style="font-size:180px;white-space:pre;fill:#bd0a61;stroke:#ffffff;stroke-width:0;stroke-linecap:round;paint-order:stroke fill markers"
         aria-label="U" />
      <path
         d="m 264.48207,397.42437 h 146.27974 c 15.62006,0 29.76255,-2.5248 42.42746,-7.57442 12.45383,-5.04962 22.37468,-12.79236 29.76255,-23.22823 7.17678,-10.43587 10.76517,-23.56487 10.76517,-39.387 0,-22.55495 -7.59895,-39.63948 -22.79684,-51.25359 -15.40898,-11.61412 -35.67284,-17.42118 -60.79158,-17.42118 h -145.6465 z"
         id="text3"
         style="font-size:180px;white-space:pre;fill:#bd0a61;stroke:#ffffff;stroke-width:0;stroke-linecap:round;paint-order:stroke fill markers"
         aria-label="U" />
      <path
         d="M 15.941338,232.59424 H 162.22108 c 15.62006,0 29.76255,-2.52481 42.42746,-7.57443 12.45383,-5.04961 22.37468,-12.79236 29.76255,-23.22823 7.17678,-10.43587 10.76517,-23.56487 10.76517,-39.387 0,-22.55494 -7.59894,-39.63948 -22.79684,-51.25359 C 206.97044,99.536873 186.70658,93.729816 161.58784,93.729816 H 15.941338 Z"
         id="text6"
         style="font-size:180px;white-space:pre;fill:#ffffff;stroke:#ffffff;stroke-width:0;stroke-linecap:round;paint-order:stroke fill markers"
         aria-label="U" />
      <rect
         style="fill:#ffffff;fill-rule:evenodd;stroke-width:1.06673"
         id="rect11"
         width="125.02079"
         height="173.81479"
         x="-178.62506"
         y="323.49731"
         transform="matrix(1,0,0.60082755,0.79937867,0,0)" />
    </g>
  </g>
  <path
     d="M 482.67734,232.81851 H 347.37763 c -15.62006,0 -29.76255,-2.52481 -42.42746,-7.57443 -12.45383,-5.04961 -22.37468,-12.79236 -29.76255,-23.22823 -7.17678,-10.43587 -10.76517,-23.56487 -10.76517,-39.387 0,-22.55494 7.59894,-39.63948 22.79684,-51.25359 15.40898,-11.614117 35.67284,-17.421174 60.79158,-17.421174 h 134.87154 a 10.774959,10.774959 0 0 1 10.77496,10.774954 v 117.10944 a 10.980028,10.980028 0 0 1 -10.98003,10.98003 z"
     id="path11"
     style="font-size:180px;white-space:pre;fill:#bd0a61;stroke:#ffffff;stroke-width:0;stroke-linecap:round;paint-order:stroke fill markers"
     aria-label="U" />
  <path
     d="m 275.67668,397.42437 h 135.08513 c 15.62006,0 29.76255,-2.5248 42.42746,-7.57442 12.45383,-5.04962 22.37468,-12.79236 29.76255,-23.22823 7.17678,-10.43587 10.76517,-23.56487 10.76517,-39.387 0,-22.55495 -7.59895,-39.63948 -22.79684,-51.25359 -15.40898,-11.61412 -35.67284,-17.42118 -60.79158,-17.42118 H 276.00808 a 11.526006,11.526006 0 0 0 -11.52601,11.52601 v 116.1438 a 11.194613,11.194613 0 0 0 11.19461,11.19461 z"
     id="path12"
     style="font-size:180px;white-space:pre;fill:#bd0a61;stroke:#ffffff;stroke-width:0;stroke-linecap:round;paint-order:stroke fill markers"
     aria-label="U" />
  <path
     d="M 27.350536,232.59424 H 162.22108 c 15.62006,0 29.76255,-2.52481 42.42746,-7.57443 12.45383,-5.04961 22.37468,-12.79236 29.76255,-23.22823 7.17678,-10.43587 10.76517,-23.56487 10.76517,-39.387 0,-22.55494 -7.59894,-39.63948 -22.79684,-51.25359 C 206.97044,99.536873 186.70658,93.729816 161.58784,93.729816 H 27.896515 A 11.955177,11.955177 0 0 0 15.941338,105.68499 v 115.50005 a 11.409198,11.409198 0 0 0 11.409198,11.4092 z"
     id="path13"
     style="font-size:180px;white-space:pre;fill:#ffffff;stroke:#ffffff;stroke-width:0;stroke-linecap:round;paint-order:stroke fill markers"
     aria-label="U" />
  <path
     style="fill:#ffffff;fill-rule:evenodd;stroke-width:0.936929"
     id="rect13"
     width="125.02079"
     height="173.81479"
     x="-178.62506"
     y="323.49731"
     d="M 27.399156,258.59685 H 140.76183 l 98.51682,126.49252 a 12.373733,6.0442686 25.218733 0 1 -3.93034,7.59581 H 120.17375 L 22.745556,267.59043 a 14.650722,7.1565227 25.218733 0 1 4.6536,-8.99358 z" />
</svg>
